<svg xmlns="http://www.w3.org/2000/svg" viewBox="0 0 69.54 15.97"><title>Recurso 1xd</title><g id="Capa_2" data-name="Capa 2"><g id="Capa_1-2" data-name="Capa 1"><g style="opacity:0.99"><path d="M0,.32H5.27A4.91,4.91,0,0,1,8.69,1.47a3.87,3.87,0,0,1,1.25,3,3.52,3.52,0,0,1-.62,2.07A3.46,3.46,0,0,1,7.67,7.76a3.6,3.6,0,0,1,2,1.32,3.7,3.7,0,0,1,.76,2.33A3.92,3.92,0,0,1,9.1,14.46a5,5,0,0,1-3.44,1.19H0ZM2.57,6.81H4.93A2.58,2.58,0,0,0,6.7,6.23a2,2,0,0,0,.65-1.56A2,2,0,0,0,6.69,3.1a2.71,2.71,0,0,0-1.83-.57H2.57Zm0,6.63H5.21a2.78,2.78,0,0,0,1.87-.59,2,2,0,0,0,.7-1.61,2.12,2.12,0,0,0-.66-1.63A2.58,2.58,0,0,0,5.29,9H2.57Z" style="fill:#eee"/><path d="M10,12.8a2.83,2.83,0,0,1,.87-2.16,4.18,4.18,0,0,1,2.3-1l2.7-.41c.52-.07.78-.33.78-.76a1.5,1.5,0,0,0-.49-1.16,2.24,2.24,0,0,0-1.5-.44,2,2,0,0,0-2.16,1.9L10.2,8.23A3.6,3.6,0,0,1,11.56,5.8a4.65,4.65,0,0,1,3.07-1A4.58,4.58,0,0,1,18,5.9a3.86,3.86,0,0,1,1.1,2.83V14a8.64,8.64,0,0,0,.13,1.69H16.9a5.28,5.28,0,0,1-.11-1.34A3.54,3.54,0,0,1,13.55,16,3.55,3.55,0,0,1,11,15,3,3,0,0,1,10,12.8ZM14,14a2.77,2.77,0,0,0,1.89-.64,2.67,2.67,0,0,0,.72-2.09v-.47l-2.74.41c-.94.16-1.41.63-1.41,1.42a1.32,1.32,0,0,0,.41,1A1.59,1.59,0,0,0,14,14Z" style="fill:#eee"/><path d="M22.48,15.65H20V0h2.51Z" style="fill:#eee"/><path d="M26.74,1.9V5.12h2.18V7.35H26.74v4.88a1.35,1.35,0,0,0,.32,1,1.42,1.42,0,0,0,1,.31,5.1,5.1,0,0,0,.86-.08v2.07a4,4,0,0,1-1.53.24A3.2,3.2,0,0,1,25.09,15a3.12,3.12,0,0,1-.84-2.31V7.35H22.31V5.12h.54a1.57,1.57,0,0,0,1.21-.45,1.72,1.72,0,0,0,.41-1.19V1.9Z" style="fill:#eee"/><path d="M36.42,12l2.12.67A4.69,4.69,0,0,1,36.84,15a4.91,4.91,0,0,1-3.06.94A5.24,5.24,0,0,1,30,14.44a5.46,5.46,0,0,1-1.57-4.11,5.49,5.49,0,0,1,1.52-4,4.91,4.91,0,0,1,3.6-1.55A4.85,4.85,0,0,1,37.3,6.28a5.67,5.67,0,0,1,1.37,4,2.75,2.75,0,0,1-.07.8H30.91a2.73,2.73,0,0,0,.87,2,2.83,2.83,0,0,0,2,.78A2.51,2.51,0,0,0,36.42,12ZM31,9.23h5.17a2.51,2.51,0,0,0-.7-1.67,2.57,2.57,0,0,0-1.9-.66,2.41,2.41,0,0,0-1.81.7A2.56,2.56,0,0,0,31,9.23Z" style="fill:#eee"/><path d="M45.54,14.48a2.55,2.55,0,0,1-1.2,1.08,4.13,4.13,0,0,1-1.78.39,3.72,3.72,0,0,1-2.91-1.19,4.32,4.32,0,0,1-1.07-3V5.12h2.51V11.3A2.7,2.7,0,0,0,41.61,13a1.87,1.87,0,0,0,1.6.67,2,2,0,0,0,1.63-.65,2.48,2.48,0,0,0,.57-1.7V5.12h2.51v8.6a18,18,0,0,0,.1,1.93H45.63A6.47,6.47,0,0,1,45.54,14.48Z" style="fill:#eee"/><path d="M51.48,15.65H49V5.12h2.4V6.46a2.89,2.89,0,0,1,1.3-1.21,4,4,0,0,1,1.81-.43,3.78,3.78,0,0,1,1.9.48,2.85,2.85,0,0,1,1.25,1.38,4,4,0,0,1,6.06-.84,3.89,3.89,0,0,1,1.08,3v6.83H62.38V9.23a2.33,2.33,0,0,0-.51-1.57,1.92,1.92,0,0,0-1.53-.59,2,2,0,0,0-1.57.67,2.35,2.35,0,0,0-.61,1.66v6.25H55.7V9.23a2.33,2.33,0,0,0-.51-1.57,1.92,1.92,0,0,0-1.52-.59,2,2,0,0,0-1.59.66,2.39,2.39,0,0,0-.6,1.67Z" style="fill:#eee"/></g><g style="opacity:0.99"><path d="M66.32,15.09a1.87,1.87,0,1,1,1.33.56A1.83,1.83,0,0,1,66.32,15.09Zm.29-2.42a1.59,1.59,0,0,0,0,2.15,1.4,1.4,0,0,0,1,.44,1.41,1.41,0,0,0,1-.44,1.59,1.59,0,0,0,0-2.15,1.44,1.44,0,0,0-1-.43A1.43,1.43,0,0,0,66.61,12.67Zm1.06.47a.49.49,0,0,0-.38.16.71.71,0,0,0,0,.9.5.5,0,0,0,.39.16.43.43,0,0,0,.32-.11.53.53,0,0,0,.17-.25l.41.15a.82.82,0,0,1-.31.45.89.89,0,0,1-.59.19,1,1,0,0,1-.73-.3A1.1,1.1,0,0,1,67,13a1,1,0,0,1,.72-.3,1,1,0,0,1,.6.19.93.93,0,0,1,.3.46l-.43.15a.44.44,0,0,0-.15-.25A.4.4,0,0,0,67.67,13.14Z" style="fill:#eee"/></g></g></g></svg>